<?xml version="1.0" standalone="no"?>
<!DOCTYPE svg PUBLIC "-//W3C//DTD SVG 20010904//EN"
 "http://www.w3.org/TR/2001/REC-SVG-20010904/DTD/svg10.dtd">
<svg version="1.0" xmlns="http://www.w3.org/2000/svg"
 width="512.000000pt" height="512.000000pt" viewBox="0 0 512.000000 512.000000"
 preserveAspectRatio="xMidYMid meet">

<g transform="translate(0.000000,512.000000) scale(0.100000,-0.100000)"
fill="#000000" stroke="none">
<path d="M3270 4840 c-194 -23 -403 -113 -546 -236 -64 -54 -81 -91 -66 -143
18 -58 54 -86 111 -86 38 0 55 6 82 28 106 87 220 147 338 179 118 33 306 30
426 -6 213 -64 385 -205 484 -395 37 -73 81 -189 81 -218 0 -10 -25 -13 -109
-13 -131 0 -161 -9 -161 -47 0 -22 36 -63 187 -215 117 -117 195 -188 207
-188 25 0 384 356 393 389 4 18 0 29 -17 43 -19 15 -41 18 -139 18 l-116 0
-13 66 c-33 174 -129 357 -260 495 -105 111 -194 177 -313 233 -182 86 -375
119 -569 96z"/>
<path d="M1336 4710 c-326 -41 -623 -187 -856 -420 -366 -366 -508 -885 -380
-1385 142 -553 599 -973 1165 -1070 187 -32 443 -20 625 31 387 107 718 377
905 736 111 214 158 409 158 658 1 243 -41 430 -143 639 -205 419 -582 708
-1040 796 -101 19 -336 27 -434 15z m389 -266 c419 -74 779 -386 914 -790 51
-152 64 -248 58 -429 -3 -128 -9 -179 -30 -255 -142 -537 -611 -900 -1162
-900 -583 0 -1081 416 -1180 989 -19 109 -19 305 0 417 44 247 161 469 342
645 287 279 663 394 1058 323z"/>
<path d="M1443 4221 c-41 -26 -63 -69 -63 -123 0 -43 -1 -43 -57 -67 -31 -14
-82 -49 -114 -79 -157 -145 -183 -388 -60 -561 11 -15 122 -105 246 -200 124
-95 237 -185 250 -199 29 -31 47 -99 38 -144 -10 -53 -31 -86 -75 -118 -33
-24 -51 -30 -95 -30 -86 0 -143 36 -179 115 -43 92 -146 112 -211 41 -27 -29
-33 -44 -33 -78 0 -96 103 -229 223 -288 65 -32 67 -34 67 -70 0 -50 36 -101
84 -119 33 -13 44 -13 79 0 51 17 87 67 87 119 0 34 3 38 52 61 270 125 343
471 145 686 -23 25 -140 120 -259 210 -186 142 -219 171 -233 206 -43 107 50
237 168 237 73 0 139 -45 178 -122 47 -92 185 -88 225 7 20 48 18 64 -16 133
-38 75 -126 159 -202 193 l-56 24 -4 58 c-4 48 -9 63 -35 89 -40 40 -104 48
-150 19z"/>
<path d="M3410 3529 c-47 -4 -126 -17 -177 -29 -80 -18 -96 -26 -122 -56 -25
-28 -31 -44 -31 -81 0 -40 5 -50 40 -85 39 -39 42 -40 93 -35 28 3 88 12 132
21 105 20 324 20 439 0 337 -59 644 -253 824 -523 141 -210 202 -409 202 -655
0 -138 -10 -208 -46 -332 -51 -176 -145 -334 -287 -481 -171 -177 -365 -286
-627 -351 -93 -23 -126 -26 -280 -26 -130 -1 -195 3 -255 16 -398 87 -703 314
-881 658 -48 94 -78 120 -139 120 -74 0 -125 -51 -125 -124 0 -23 18 -70 48
-130 188 -365 546 -646 959 -750 155 -39 259 -49 448 -43 193 6 310 29 480 92
133 50 192 80 316 164 330 221 549 553 625 947 23 120 23 356 0 484 -117 645
-664 1134 -1345 1200 -110 11 -171 11 -291 -1z"/>
<path d="M3630 2920 c-266 -57 -449 -197 -563 -432 l-52 -108 -93 0 c-105 0
-143 -13 -167 -60 -32 -62 -9 -136 51 -165 19 -9 60 -15 103 -15 l71 0 0 -59
0 -59 -91 -4 c-88 -3 -92 -4 -120 -36 -47 -52 -37 -141 20 -179 20 -13 53 -18
136 -21 l110 -4 43 -93 c104 -222 279 -371 507 -431 110 -29 320 -25 448 9
181 48 237 87 237 164 0 34 -31 88 -60 103 -30 16 -99 7 -200 -25 -103 -33
-261 -44 -349 -25 -129 28 -258 118 -335 235 -20 29 -36 56 -36 59 0 3 111 6
248 6 227 0 250 2 279 20 17 10 37 29 44 41 17 32 13 93 -7 125 -33 50 -59 54
-359 54 l-275 0 0 60 0 60 325 0 c272 0 331 3 355 15 59 30 79 119 38 170 -40
52 -63 55 -373 55 l-286 0 28 52 c45 83 129 161 225 207 110 52 160 61 344 61
l156 0 34 34 c29 29 34 41 34 80 0 58 -36 103 -95 116 -68 16 -281 10 -375
-10z"/>
<path d="M710 1443 c-100 -97 -186 -185 -191 -195 -14 -26 -3 -53 27 -66 14
-7 73 -12 132 -12 l107 0 23 -98 c43 -183 152 -372 293 -507 173 -165 372
-257 618 -285 271 -32 590 71 788 253 65 60 68 130 9 186 -53 50 -113 36 -221
-49 -67 -54 -174 -105 -271 -131 -110 -30 -297 -30 -407 -1 -216 59 -406 210
-509 407 -31 61 -78 190 -78 216 0 5 49 9 109 9 131 0 161 9 161 47 0 22 -36
63 -187 215 -103 103 -195 188 -204 188 -10 0 -99 -80 -199 -177z"/>
</g>
</svg>
